<svg xmlns="http://www.w3.org/2000/svg" viewBox="0 0 1024 1024" role="img" aria-label="YouHungry app icon">
  <rect x="64" y="64" width="896" height="896" rx="200" fill="#0B1220"/>
  
  <g transform="translate(192,160)">
    <g transform="scale(8.8)">
      <defs>
        <mask id="app-fork-cutout">
          <rect width="100%" height="100%" fill="white"/>
          <g transform="translate(34,20)">
            <rect x="0" y="0" width="4" height="18" rx="2" fill="black"/>
            <rect x="7" y="0" width="4" height="18" rx="2" fill="black"/>
            <rect x="14" y="0" width="4" height="18" rx="2" fill="black"/>
            <rect x="21" y="0" width="4" height="18" rx="2" fill="black"/>
            <rect x="3.5" y="20" width="18" height="4" rx="2" fill="black"/>
          </g>
        </mask>
      </defs>
      <path fill="#F9FAFB" mask="url(#app-fork-cutout)"
            d="M48 8c-16.6 0-30 13.1-30 29.2 0 8.8 4.1 15.8 9.3 22.6 4.5 6 9.8 11.7 14.7 18.8 2.5 3.6 4.7 7.6 6 11.4 1.3-3.8 3.5-7.8 6-11.4 4.8-7.1 10.1-12.8 14.7-18.8 5.2-6.9 9.3-13.8 9.3-22.6C78 19.1 64.6 8 48 8z"/>
      <path fill="#F9FAFB" stroke="none"
            d="M30 76 Q45 70 62 76 Q45 72 30 76"/>
      <path fill="#F9FAFB" stroke="none"
            d="M30 86 Q45 80 62 86 Q45 82 30 86"/>
    </g>
  </g>
</svg>