<svg xmlns="http://www.w3.org/2000/svg" viewBox="0 0 512 512" role="img" aria-label="Fork In The Road app icon">
  <defs>
    <mask id="fork-cutout-512">
      <rect width="100%" height="100%" fill="white"/>
      <g transform="translate(179.2, 107.52)">
        <!-- Fork tines (negative space) -->
        <rect x="0" y="0" width="21.504" height="97.28" rx="10.752" fill="black"/>
        <rect x="37.376" y="0" width="21.504" height="97.28" rx="10.752" fill="black"/>
        <rect x="74.752" y="0" width="21.504" height="97.28" rx="10.752" fill="black"/>
        <rect x="112.128" y="0" width="21.504" height="97.28" rx="10.752" fill="black"/>
        <!-- Fork handle (negative space) -->
        <rect x="18.432" y="107.52" width="95.744" height="21.504" rx="10.752" fill="black"/>
      </g>
    </mask>
  </defs>
  
  <!-- Main map pin body -->
  <path fill="#e3005a" mask="url(#fork-cutout-512)"
        d="M256 42.496c-88.576 0-160.256 69.632-160.256 155.648 0 47.104 22.016 84.48 49.664 120.32 24.064 32.256 52.224 62.464 78.336 100.352 13.312 18.944 25.088 40.448 31.744 60.928 6.656-20.48 15.872-41.472 31.744-60.928 25.6-37.376 53.76-68.096 78.336-100.352 27.648-36.864 49.664-73.728 49.664-120.32C416.256 101.888 344.576 42.496 256 42.496z"/>
  
  <!-- Diverging roads at the base -->
  <path fill="#e3005a" stroke="none"
        d="M160.256 405.504 Q240.128 373.248 330.752 405.504 Q240.128 384 160.256 405.504"/>
  <path fill="#e3005a" stroke="none"
        d="M160.256 458.752 Q240.128 426.496 330.752 458.752 Q240.128 437.248 160.256 458.752"/>
</svg>