<svg xmlns="http://www.w3.org/2000/svg" viewBox="0 0 72 72" role="img" aria-label="Fork In The Road app icon">
  <defs>
    <mask id="fork-cutout-72">
      <rect width="100%" height="100%" fill="white"/>
      <g transform="translate(25.2, 15.12)">
        <!-- Fork tines (negative space) -->
        <rect x="0" y="0" width="3.024" height="13.68" rx="1.512" fill="black"/>
        <rect x="5.255999999999999" y="0" width="3.024" height="13.68" rx="1.512" fill="black"/>
        <rect x="10.511999999999999" y="0" width="3.024" height="13.68" rx="1.512" fill="black"/>
        <rect x="15.768" y="0" width="3.024" height="13.68" rx="1.512" fill="black"/>
        <!-- Fork handle (negative space) -->
        <rect x="2.5919999999999996" y="15.12" width="13.464" height="3.024" rx="1.512" fill="black"/>
      </g>
    </mask>
  </defs>
  
  <!-- Main map pin body -->
  <path fill="#e3005a" mask="url(#fork-cutout-72)"
        d="M36 5.976c-12.456 0-22.536 9.792000000000002-22.536 21.887999999999998 0 6.624 3.0959999999999996 11.88 6.984 16.919999999999998 3.384 4.536 7.343999999999999 8.783999999999999 11.016 14.112 1.8719999999999999 2.6639999999999997 3.528 5.688 4.464 8.568 0.9359999999999999-2.88 2.232-5.832 4.464-8.568 3.6-5.255999999999999 7.56-9.576 11.016-14.112 3.888-5.183999999999999 6.984-10.367999999999999 6.984-16.919999999999998C58.535999999999994 14.328000000000001 48.456 5.976 36 5.976z"/>
  
  <!-- Diverging roads at the base -->
  <path fill="#e3005a" stroke="none"
        d="M22.536 57.024 Q33.768 52.488 46.512 57.024 Q33.768 54 22.536 57.024"/>
  <path fill="#e3005a" stroke="none"
        d="M22.536 64.512 Q33.768 59.976 46.512 64.512 Q33.768 61.488 22.536 64.512"/>
</svg>