<svg xmlns="http://www.w3.org/2000/svg" viewBox="0 0 96 96" role="img" aria-labelledby="logo-title logo-desc">
  <title id="logo-title">Fork In The Road – Logomark</title>
  <desc id="logo-desc">A map pin with a fork-like negative space and diverging roads at the base</desc>
  <defs>
    <mask id="fork-cutout-new">
      <rect width="100%" height="100%" fill="white"/>
      <g transform="translate(34,20)">
        <!-- Fork tines (negative space) -->
        <rect x="0" y="0" width="4" height="18" rx="2" fill="black"/>
        <rect x="7" y="0" width="4" height="18" rx="2" fill="black"/>
        <rect x="14" y="0" width="4" height="18" rx="2" fill="black"/>
        <rect x="21" y="0" width="4" height="18" rx="2" fill="black"/>
        <!-- Fork handle (negative space) -->
        <rect x="3.5" y="20" width="18" height="4" rx="2" fill="black"/>
      </g>
    </mask>
  </defs>
  
  <!-- Main map pin body -->
  <path fill="currentColor" mask="url(#fork-cutout-new)"
        d="M48 8c-16.6 0-30 13.1-30 29.2 0 8.8 4.1 15.8 9.3 22.6 4.5 6 9.8 11.7 14.7 18.8 2.5 3.6 4.7 7.6 6 11.4 1.3-3.8 3.5-7.8 6-11.4 4.8-7.1 10.1-12.8 14.7-18.8 5.2-6.9 9.3-13.8 9.3-22.6C78 19.1 64.6 8 48 8z"/>
  
  <!-- Diverging roads at the base -->
  <path fill="currentColor" stroke="none"
        d="M30 76 Q45 70 62 76 Q45 72 30 76"/>
  <path fill="currentColor" stroke="none"
        d="M30 86 Q45 80 62 86 Q45 82 30 86"/>
</svg>