<svg xmlns="http://www.w3.org/2000/svg" viewBox="0 0 32 32" role="img" aria-label="Fork In The Road favicon">
  <defs>
    <mask id="favicon-32-fork">
      <rect width="100%" height="100%" fill="white"/>
      <g transform="translate(12,8)">
        <!-- 3-tine fork for 32x32 -->
        <rect x="2" y="2" width="2" height="8" rx="1" fill="black"/>
        <rect x="5" y="2" width="2" height="8" rx="1" fill="black"/>
        <rect x="8" y="2" width="2" height="8" rx="1" fill="black"/>
        <rect x="3" y="12" width="6" height="3" rx="1" fill="black"/>
      </g>
    </mask>
  </defs>
  <!-- Map pin -->
  <path fill="currentColor" mask="url(#favicon-32-fork)"
        d="M16 4c-7 0-12 5-12 12 0 4 2 7 4 10 2 3 4 5 5 7 1-2 2-4 3-6 1-2 3-4 5-6 2-3 4-6 4-10C28 9 23 4 16 4z"/>
  <!-- Roads -->
  <path fill="none" stroke="currentColor" stroke-width="2" stroke-linecap="round"
        d="M10 26 Q16 24 22 26"/>
</svg>
