<svg xmlns="http://www.w3.org/2000/svg" viewBox="0 0 16 16" role="img" aria-label="Fork In The Road favicon">
  <defs>
    <mask id="favicon-16-fork">
      <rect width="100%" height="100%" fill="white"/>
      <g transform="translate(6,4)">
        <!-- Ultra-minimal fork for 16x16 -->
        <rect x="1" y="1" width="1" height="4" fill="black"/>
        <rect x="2" y="1" width="1" height="4" fill="black"/>
        <rect x="3" y="1" width="1" height="4" fill="black"/>
        <rect x="1" y="6" width="3" height="1" fill="black"/>
      </g>
    </mask>
  </defs>
  <!-- Minimal map pin -->
  <path fill="currentColor" mask="url(#favicon-16-fork)"
        d="M8 2c-3 0-6 2-6 6 0 2 1 3 2 5 1 1 2 2 2 3 0-1 1-2 2-3 1-1 2-2 2-3 1-2 2-3 2-5C14 4 11 2 8 2z"/>
  <!-- Single road line -->
  <path fill="none" stroke="currentColor" stroke-width="1" stroke-linecap="round"
        d="M5 13 Q8 12 11 13"/>
</svg>
